<mxfile host="65bd71144e">
    <diagram id="BBIaCQiuaAb_JKgmIUhu" name="Page-1">
        <mxGraphModel dx="661" dy="863" grid="0" gridSize="10" guides="1" tooltips="1" connect="1" arrows="1" fold="1" page="0" pageScale="1" pageWidth="1100" pageHeight="850" background="none" math="0" shadow="0">
            <root>
                <mxCell id="0"/>
                <mxCell id="1" parent="0"/>
                <mxCell id="92Lfp3XjyuxSRO2LKdbv-2" value="&lt;h1 style=&quot;font-size: 10px;&quot;&gt;&lt;font style=&quot;font-size: 10px;&quot;&gt;Functional Requirements&lt;/font&gt;&lt;/h1&gt;&lt;p style=&quot;font-size: 10px;&quot;&gt;1. User Service&amp;nbsp;&lt;span style=&quot;background-color: initial;&quot;&gt;- Handles authentication, authorization and User management.&lt;/span&gt;&lt;/p&gt;&lt;p style=&quot;font-size: 10px;&quot;&gt;- MySQL, Redis&lt;/p&gt;&lt;p style=&quot;font-size: 10px;&quot;&gt;2. Product Service - Manage of the details products&lt;/p&gt;&lt;p style=&quot;font-size: 10px;&quot;&gt;3. Inventory Service - Management of stocks of product&lt;/p&gt;&lt;p style=&quot;font-size: 10px;&quot;&gt;4&lt;font style=&quot;font-size: 10px;&quot;&gt;. Order Service - For order processing&lt;/font&gt;&lt;/p&gt;&lt;p style=&quot;font-size: 10px;&quot;&gt;&lt;font style=&quot;font-size: 10px;&quot;&gt;- RabbitMQ, Kafka&lt;/font&gt;&lt;/p&gt;&lt;p style=&quot;font-size: 10px;&quot;&gt;&lt;font style=&quot;font-size: 10px;&quot;&gt;5. Payment Service - Integration to external payment gateway&lt;/font&gt;&lt;/p&gt;&lt;p style=&quot;font-size: 10px;&quot;&gt;&lt;font style=&quot;font-size: 10px;&quot;&gt;6. Logging Service - identifying issues of the dystem.&lt;br&gt;- MongoDB,&amp;nbsp;&lt;/font&gt;&lt;/p&gt;&lt;p style=&quot;font-size: 10px;&quot;&gt;7. Cart Service - Adding to the cart and wishlist&lt;br&gt;- Redis, RabbitMQ&lt;/p&gt;&lt;p style=&quot;font-size: 10px;&quot;&gt;8. Shipping Service - Tracking the order status, cancellation and refund&lt;/p&gt;&lt;p style=&quot;font-size: 10px;&quot;&gt;9. Search Service - product searching based on criteria and categories.&lt;/p&gt;&lt;p style=&quot;font-size: 10px;&quot;&gt;- Elastic Search&amp;nbsp;&lt;/p&gt;&lt;p style=&quot;font-size: 10px;&quot;&gt;Others: Discount Service, Recommendation Service&amp;nbsp;&lt;/p&gt;" style="text;html=1;strokeColor=none;fillColor=none;spacing=5;spacingTop=-20;whiteSpace=wrap;overflow=hidden;rounded=0;fontSize=10;" vertex="1" parent="1">
                    <mxGeometry x="11" y="-10" width="399" height="327" as="geometry"/>
                </mxCell>
                <mxCell id="92Lfp3XjyuxSRO2LKdbv-4" value="&lt;h1 style=&quot;font-size: 10px;&quot;&gt;&lt;font style=&quot;font-size: 10px;&quot;&gt;Non-Functional Requirements&lt;/font&gt;&lt;/h1&gt;&lt;p style=&quot;font-size: 10px;&quot;&gt;1. High-consistency - Handles authentication, authorization and User management.&lt;/p&gt;&lt;p style=&quot;font-size: 10px;&quot;&gt;2. Low Latency - Product listing or recommendation&lt;/p&gt;&lt;p style=&quot;font-size: 10px;&quot;&gt;3. Scalability - Handle more customers&lt;/p&gt;&lt;p style=&quot;font-size: 10px;&quot;&gt;4. API Gateway&amp;nbsp;&lt;/p&gt;" style="text;html=1;strokeColor=none;fillColor=none;spacing=5;spacingTop=-20;whiteSpace=wrap;overflow=hidden;rounded=0;fontSize=10;" vertex="1" parent="1">
                    <mxGeometry x="11" y="349" width="332" height="238" as="geometry"/>
                </mxCell>
                <mxCell id="92Lfp3XjyuxSRO2LKdbv-19" style="edgeStyle=none;html=1;entryX=0;entryY=0.5;entryDx=0;entryDy=0;fontSize=10;exitX=1;exitY=0.5;exitDx=0;exitDy=0;" edge="1" parent="1" source="92Lfp3XjyuxSRO2LKdbv-22" target="92Lfp3XjyuxSRO2LKdbv-24">
                    <mxGeometry relative="1" as="geometry">
                        <mxPoint x="414" y="124" as="sourcePoint"/>
                        <Array as="points"/>
                    </mxGeometry>
                </mxCell>
                <mxCell id="92Lfp3XjyuxSRO2LKdbv-21" style="edgeStyle=none;html=1;exitX=1;exitY=0.5;exitDx=0;exitDy=0;entryX=0;entryY=0.5;entryDx=0;entryDy=0;fontSize=10;startArrow=classic;startFill=1;" edge="1" parent="1" source="92Lfp3XjyuxSRO2LKdbv-12" target="92Lfp3XjyuxSRO2LKdbv-18">
                    <mxGeometry relative="1" as="geometry"/>
                </mxCell>
                <mxCell id="92Lfp3XjyuxSRO2LKdbv-12" value="API&amp;nbsp;&lt;br&gt;Gateway" style="rounded=1;whiteSpace=wrap;html=1;fontSize=10;" vertex="1" parent="1">
                    <mxGeometry x="530" y="60.25" width="52" height="192.5" as="geometry"/>
                </mxCell>
                <mxCell id="92Lfp3XjyuxSRO2LKdbv-20" style="edgeStyle=none;html=1;exitX=0.5;exitY=0;exitDx=0;exitDy=0;entryX=0.5;entryY=1;entryDx=0;entryDy=0;fontSize=10;startArrow=classic;startFill=1;" edge="1" parent="1" source="92Lfp3XjyuxSRO2LKdbv-14" target="92Lfp3XjyuxSRO2LKdbv-18">
                    <mxGeometry relative="1" as="geometry"/>
                </mxCell>
                <mxCell id="92Lfp3XjyuxSRO2LKdbv-14" value="User Service" style="rounded=1;whiteSpace=wrap;html=1;fontSize=10;" vertex="1" parent="1">
                    <mxGeometry x="674" y="213" width="77" height="36" as="geometry"/>
                </mxCell>
                <mxCell id="92Lfp3XjyuxSRO2LKdbv-15" value="" style="rounded=1;whiteSpace=wrap;html=1;fontSize=10;movable=1;resizable=1;rotatable=1;deletable=1;editable=1;connectable=1;" vertex="1" parent="1">
                    <mxGeometry x="765" y="-1.25" width="104" height="76.25" as="geometry"/>
                </mxCell>
                <mxCell id="92Lfp3XjyuxSRO2LKdbv-31" style="edgeStyle=none;html=1;exitX=1;exitY=0.5;exitDx=0;exitDy=0;fontSize=10;startArrow=classic;startFill=1;" edge="1" parent="1" source="92Lfp3XjyuxSRO2LKdbv-16">
                    <mxGeometry relative="1" as="geometry">
                        <mxPoint x="766" y="37" as="targetPoint"/>
                    </mxGeometry>
                </mxCell>
                <mxCell id="92Lfp3XjyuxSRO2LKdbv-16" value="Wishlist Service" style="rounded=1;whiteSpace=wrap;html=1;fontSize=10;" vertex="1" parent="1">
                    <mxGeometry x="641" y="39" width="80" height="36" as="geometry"/>
                </mxCell>
                <mxCell id="92Lfp3XjyuxSRO2LKdbv-46" style="edgeStyle=none;html=1;exitX=1;exitY=0.5;exitDx=0;exitDy=0;entryX=0;entryY=0.5;entryDx=0;entryDy=0;fontSize=10;startArrow=classic;startFill=1;" edge="1" parent="1" source="92Lfp3XjyuxSRO2LKdbv-17" target="92Lfp3XjyuxSRO2LKdbv-42">
                    <mxGeometry relative="1" as="geometry"/>
                </mxCell>
                <mxCell id="92Lfp3XjyuxSRO2LKdbv-17" value="Cart Service" style="rounded=1;whiteSpace=wrap;html=1;fontSize=10;" vertex="1" parent="1">
                    <mxGeometry x="776.5" y="82" width="81" height="36" as="geometry"/>
                </mxCell>
                <mxCell id="92Lfp3XjyuxSRO2LKdbv-26" style="edgeStyle=none;html=1;exitX=1;exitY=0.5;exitDx=0;exitDy=0;fontSize=10;startArrow=classic;startFill=1;" edge="1" parent="1" source="92Lfp3XjyuxSRO2LKdbv-18" target="92Lfp3XjyuxSRO2LKdbv-25">
                    <mxGeometry relative="1" as="geometry"/>
                </mxCell>
                <mxCell id="92Lfp3XjyuxSRO2LKdbv-32" style="edgeStyle=none;html=1;exitX=0.5;exitY=0;exitDx=0;exitDy=0;entryX=0.449;entryY=0.988;entryDx=0;entryDy=0;entryPerimeter=0;fontSize=10;startArrow=classic;startFill=1;" edge="1" parent="1" source="92Lfp3XjyuxSRO2LKdbv-18" target="92Lfp3XjyuxSRO2LKdbv-16">
                    <mxGeometry relative="1" as="geometry"/>
                </mxCell>
                <mxCell id="92Lfp3XjyuxSRO2LKdbv-33" style="edgeStyle=none;html=1;exitX=0.5;exitY=0;exitDx=0;exitDy=0;entryX=0;entryY=0.5;entryDx=0;entryDy=0;fontSize=10;startArrow=classic;startFill=1;" edge="1" parent="1" source="92Lfp3XjyuxSRO2LKdbv-18" target="92Lfp3XjyuxSRO2LKdbv-17">
                    <mxGeometry relative="1" as="geometry"/>
                </mxCell>
                <mxCell id="92Lfp3XjyuxSRO2LKdbv-18" value="Search Service" style="rounded=1;whiteSpace=wrap;html=1;fontSize=10;" vertex="1" parent="1">
                    <mxGeometry x="638" y="139" width="81" height="36" as="geometry"/>
                </mxCell>
                <mxCell id="92Lfp3XjyuxSRO2LKdbv-22" value="User Search Flow - UI" style="rounded=0;whiteSpace=wrap;html=1;fontSize=10;" vertex="1" parent="1">
                    <mxGeometry x="343" y="126.5" width="69" height="60" as="geometry"/>
                </mxCell>
                <mxCell id="92Lfp3XjyuxSRO2LKdbv-23" value="User Purchase Flow - UI" style="rounded=0;whiteSpace=wrap;html=1;fontSize=10;" vertex="1" parent="1">
                    <mxGeometry x="381" y="280" width="69" height="60" as="geometry"/>
                </mxCell>
                <mxCell id="92Lfp3XjyuxSRO2LKdbv-24" value="Load Balancer" style="rounded=1;whiteSpace=wrap;html=1;fontSize=10;" vertex="1" parent="1">
                    <mxGeometry x="478" y="60.75" width="52" height="192.5" as="geometry"/>
                </mxCell>
                <mxCell id="92Lfp3XjyuxSRO2LKdbv-25" value="Elastic Seach Cluster" style="aspect=fixed;perimeter=ellipsePerimeter;html=1;align=center;shadow=0;dashed=0;fontColor=#4277BB;labelBackgroundColor=#ffffff;fontSize=12;spacingTop=3;image;image=img/lib/ibm/management/cluster_management.svg;" vertex="1" parent="1">
                    <mxGeometry x="770" y="135.5" width="43" height="43" as="geometry"/>
                </mxCell>
                <mxCell id="92Lfp3XjyuxSRO2LKdbv-28" value="" style="outlineConnect=0;dashed=0;verticalLabelPosition=bottom;verticalAlign=top;align=center;html=1;shape=mxgraph.aws3.mysql_db_instance;fillColor=#2E73B8;gradientColor=none;fontSize=10;movable=1;resizable=1;rotatable=1;deletable=1;editable=1;connectable=1;" vertex="1" parent="1">
                    <mxGeometry x="778" y="18" width="34" height="28.5" as="geometry"/>
                </mxCell>
                <mxCell id="92Lfp3XjyuxSRO2LKdbv-29" value="" style="outlineConnect=0;dashed=0;verticalLabelPosition=bottom;verticalAlign=top;align=center;html=1;shape=mxgraph.aws3.mysql_db_instance_2;fillColor=#2E73B8;gradientColor=none;fontSize=10;movable=1;resizable=1;rotatable=1;deletable=1;editable=1;connectable=1;" vertex="1" parent="1">
                    <mxGeometry x="822" y="5" width="28" height="23.5" as="geometry"/>
                </mxCell>
                <mxCell id="92Lfp3XjyuxSRO2LKdbv-30" value="" style="outlineConnect=0;dashed=0;verticalLabelPosition=bottom;verticalAlign=top;align=center;html=1;shape=mxgraph.aws3.mysql_db_instance_2;fillColor=#2E73B8;gradientColor=none;fontSize=10;movable=1;resizable=1;rotatable=1;deletable=1;editable=1;connectable=1;" vertex="1" parent="1">
                    <mxGeometry x="822" y="38.25" width="28" height="23.5" as="geometry"/>
                </mxCell>
                <mxCell id="92Lfp3XjyuxSRO2LKdbv-42" value="" style="rounded=1;whiteSpace=wrap;html=1;fontSize=10;movable=1;resizable=1;rotatable=1;deletable=1;editable=1;connectable=1;" vertex="1" parent="1">
                    <mxGeometry x="890" y="54" width="104" height="76.25" as="geometry"/>
                </mxCell>
                <mxCell id="92Lfp3XjyuxSRO2LKdbv-43" value="" style="outlineConnect=0;dashed=0;verticalLabelPosition=bottom;verticalAlign=top;align=center;html=1;shape=mxgraph.aws3.mysql_db_instance;fillColor=#2E73B8;gradientColor=none;fontSize=10;movable=1;resizable=1;rotatable=1;deletable=1;editable=1;connectable=1;" vertex="1" parent="1">
                    <mxGeometry x="903" y="73.25" width="34" height="28.5" as="geometry"/>
                </mxCell>
                <mxCell id="92Lfp3XjyuxSRO2LKdbv-44" value="" style="outlineConnect=0;dashed=0;verticalLabelPosition=bottom;verticalAlign=top;align=center;html=1;shape=mxgraph.aws3.mysql_db_instance_2;fillColor=#2E73B8;gradientColor=none;fontSize=10;movable=1;resizable=1;rotatable=1;deletable=1;editable=1;connectable=1;" vertex="1" parent="1">
                    <mxGeometry x="947" y="60.25" width="28" height="23.5" as="geometry"/>
                </mxCell>
                <mxCell id="92Lfp3XjyuxSRO2LKdbv-45" value="" style="outlineConnect=0;dashed=0;verticalLabelPosition=bottom;verticalAlign=top;align=center;html=1;shape=mxgraph.aws3.mysql_db_instance_2;fillColor=#2E73B8;gradientColor=none;fontSize=10;movable=1;resizable=1;rotatable=1;deletable=1;editable=1;connectable=1;" vertex="1" parent="1">
                    <mxGeometry x="947" y="93.5" width="28" height="23.5" as="geometry"/>
                </mxCell>
            </root>
        </mxGraphModel>
    </diagram>
</mxfile>